<?xml version="1.0" encoding="UTF-8"?>
<svg xmlns="http://www.w3.org/2000/svg"
     xmlns:xlink="http://www.w3.org/1999/xlink"
     xmlns:gadfly="http://www.gadflyjl.org/ns"
     version="1.2"
     width="160mm" height="120mm" viewBox="0 0 160 120"
     stroke="none"
     fill="#000000"
     stroke-width="0.3"
     font-size="3.88"
>
<defs>
  <marker id="arrow" markerWidth="15" markerHeight="7" refX="5" refY="3.5" orient="auto" markerUnits="strokeWidth">
    <path d="M0,0 L15,3.5 L0,7 z" stroke="context-stroke" fill="context-stroke"/>
  </marker>
</defs>
<g stroke="#000000" stroke-opacity="0.000" fill="#FFFFFF" id="img-c9b5e59a-1">
  <g transform="translate(80,60)">
    <path d="M-80,-60 L80,-60 80,60 -80,60  z" class="primitive"/>
  </g>
</g>
<g class="plotroot xscalable yscalable" id="img-c9b5e59a-2">
  <g font-size="3.88" font-family="'PT Sans','Helvetica Neue','Helvetica',sans-serif" fill="#564A55" stroke="#000000" stroke-opacity="0.000" id="img-c9b5e59a-3">
    <g transform="translate(77.99,108.39)">
      <g class="primitive">
        <text text-anchor="middle" dy="0.6em">x</text>
      </g>
    </g>
  </g>
  <g class="guide xlabels" font-size="2.82" font-family="'PT Sans Caption','Helvetica Neue','Helvetica',sans-serif" fill="#6C606B" id="img-c9b5e59a-4">
    <g transform="translate(20.63,101.72)">
      <g class="primitive">
        <text text-anchor="middle" dy="0.6em">-1.0</text>
      </g>
    </g>
    <g transform="translate(49.31,101.72)">
      <g class="primitive">
        <text text-anchor="middle" dy="0.6em">-0.5</text>
      </g>
    </g>
    <g transform="translate(77.99,101.72)">
      <g class="primitive">
        <text text-anchor="middle" dy="0.6em">0.0</text>
      </g>
    </g>
    <g transform="translate(106.67,101.72)">
      <g class="primitive">
        <text text-anchor="middle" dy="0.6em">0.5</text>
      </g>
    </g>
    <g transform="translate(135.35,101.72)">
      <g class="primitive">
        <text text-anchor="middle" dy="0.6em">1.0</text>
      </g>
    </g>
  </g>
  <g class="guide colorkey" id="img-c9b5e59a-5">
    <g fill="#4C404B" font-size="2.82" font-family="'PT Sans','Helvetica Neue','Helvetica',sans-serif" id="img-c9b5e59a-6">
      <g transform="translate(141.17,51.04)" id="img-c9b5e59a-7" class="color_0.03">
        <g class="primitive">
          <text dy="0.35em">0.03</text>
        </g>
      </g>
      <g transform="translate(141.17,54.67)" id="img-c9b5e59a-8" class="color_0.1">
        <g class="primitive">
          <text dy="0.35em">0.1</text>
        </g>
      </g>
      <g transform="translate(141.17,58.3)" id="img-c9b5e59a-9" class="color_0.3">
        <g class="primitive">
          <text dy="0.35em">0.3</text>
        </g>
      </g>
    </g>
    <g fill-opacity="1" id="img-c9b5e59a-10">
      <g transform="translate(139.26,51.04)" id="img-c9b5e59a-11" fill="#00BFFF" class="color_0.03" stroke="#FFFFFF">
        <path d="M-0.91,-0.91 L0.91,-0.91 0.91,0.91 -0.91,0.91  z" class="primitive"/>
      </g>
      <g transform="translate(139.26,54.67)" id="img-c9b5e59a-12" fill="#D4CA3A" class="color_0.1" stroke="#FFFFFF">
        <path d="M-0.91,-0.91 L0.91,-0.91 0.91,0.91 -0.91,0.91  z" class="primitive"/>
      </g>
      <g transform="translate(139.26,58.3)" id="img-c9b5e59a-13" fill="#FF6DAE" class="color_0.3" stroke="#FFFFFF">
        <path d="M-0.91,-0.91 L0.91,-0.91 0.91,0.91 -0.91,0.91  z" class="primitive"/>
      </g>
    </g>
    <g fill="#362A35" font-size="3.88" font-family="'PT Sans','Helvetica Neue','Helvetica',sans-serif" stroke="#000000" stroke-opacity="0.000" id="img-c9b5e59a-14">
      <g transform="translate(138.35,47.22)" id="img-c9b5e59a-15">
        <g class="primitive">
          <text dy="-0em">bandwidth</text>
        </g>
      </g>
    </g>
  </g>
  <g clip-path="url(#img-c9b5e59a-16)">
    <g id="img-c9b5e59a-17">
      <g pointer-events="visible" stroke-width="0.3" fill="#000000" fill-opacity="0.000" stroke="#000000" stroke-opacity="0.000" class="guide background" id="img-c9b5e59a-18">
        <g transform="translate(77.99,52.86)" id="img-c9b5e59a-19">
          <path d="M-59.36,-47.86 L59.36,-47.86 59.36,47.86 -59.36,47.86  z" class="primitive"/>
        </g>
      </g>
      <g class="guide ygridlines xfixed" stroke-dasharray="0.5,0.5" stroke-width="0.2" stroke="#D0D0E0" id="img-c9b5e59a-20">
        <g transform="translate(77.99,98.71)" id="img-c9b5e59a-21">
          <path fill="none" d="M-59.36,0 L59.36,0 " class="primitive"/>
        </g>
        <g transform="translate(77.99,52.86)" id="img-c9b5e59a-22">
          <path fill="none" d="M-59.36,0 L59.36,0 " class="primitive"/>
        </g>
        <g transform="translate(77.99,7)" id="img-c9b5e59a-23">
          <path fill="none" d="M-59.36,0 L59.36,0 " class="primitive"/>
        </g>
      </g>
      <g class="guide xgridlines yfixed" stroke-dasharray="0.5,0.5" stroke-width="0.2" stroke="#D0D0E0" id="img-c9b5e59a-24">
        <g transform="translate(20.63,52.86)" id="img-c9b5e59a-25">
          <path fill="none" d="M0,-47.86 L0,47.86 " class="primitive"/>
        </g>
        <g transform="translate(49.31,52.86)" id="img-c9b5e59a-26">
          <path fill="none" d="M0,-47.86 L0,47.86 " class="primitive"/>
        </g>
        <g transform="translate(77.99,52.86)" id="img-c9b5e59a-27">
          <path fill="none" d="M0,-47.86 L0,47.86 " class="primitive"/>
        </g>
        <g transform="translate(106.67,52.86)" id="img-c9b5e59a-28">
          <path fill="none" d="M0,-47.86 L0,47.86 " class="primitive"/>
        </g>
        <g transform="translate(135.35,52.86)" id="img-c9b5e59a-29">
          <path fill="none" d="M0,-47.86 L0,47.86 " class="primitive"/>
        </g>
      </g>
      <g class="plotpanel" id="img-c9b5e59a-30">
        <metadata>
          <boundingbox value="18.63166666666666mm 5.0mm 118.7225mm 95.715mm"/>
          <unitbox value="-1.0348667436640588 1.0218066837485689 2.0697334873281177 -1.043613367497138"/>
        </metadata>
        <g class="geometry" id="img-c9b5e59a-31">
          <g stroke-width="0.3" id="img-c9b5e59a-32">
            <g class="color_RGB{N0f8}(0.0,0.0,0.0)" fill-opacity="1" stroke="#FFFFFF" fill="#000000" id="img-c9b5e59a-33">
              <g class="marker" id="img-c9b5e59a-34">
                <g transform="translate(87.18,98.71)" id="img-c9b5e59a-35">
                  <circle cx="0" cy="0" r="0.9" class="primitive"/>
                </g>
              </g>
            </g>
            <g class="color_RGB{N0f8}(0.0,0.0,0.0)" fill-opacity="1" stroke="#FFFFFF" fill="#000000" id="img-c9b5e59a-36">
              <g class="marker" id="img-c9b5e59a-37">
                <g transform="translate(90.19,98.71)" id="img-c9b5e59a-38">
                  <circle cx="0" cy="0" r="0.9" class="primitive"/>
                </g>
              </g>
            </g>
            <g class="color_RGB{N0f8}(0.0,0.0,0.0)" fill-opacity="1" stroke="#FFFFFF" fill="#000000" id="img-c9b5e59a-39">
              <g class="marker" id="img-c9b5e59a-40">
                <g transform="translate(26.69,98.71)" id="img-c9b5e59a-41">
                  <circle cx="0" cy="0" r="0.9" class="primitive"/>
                </g>
              </g>
            </g>
            <g class="color_RGB{N0f8}(0.0,0.0,0.0)" fill-opacity="1" stroke="#FFFFFF" fill="#000000" id="img-c9b5e59a-42">
              <g class="marker" id="img-c9b5e59a-43">
                <g transform="translate(39.32,98.71)" id="img-c9b5e59a-44">
                  <circle cx="0" cy="0" r="0.9" class="primitive"/>
                </g>
              </g>
            </g>
            <g class="color_RGB{N0f8}(0.0,0.0,0.0)" fill-opacity="1" stroke="#FFFFFF" fill="#000000" id="img-c9b5e59a-45">
              <g class="marker" id="img-c9b5e59a-46">
                <g transform="translate(34.03,98.71)" id="img-c9b5e59a-47">
                  <circle cx="0" cy="0" r="0.9" class="primitive"/>
                </g>
              </g>
            </g>
            <g class="color_RGB{N0f8}(0.0,0.0,0.0)" fill-opacity="1" stroke="#FFFFFF" fill="#000000" id="img-c9b5e59a-48">
              <g class="marker" id="img-c9b5e59a-49">
                <g transform="translate(64.89,98.71)" id="img-c9b5e59a-50">
                  <circle cx="0" cy="0" r="0.9" class="primitive"/>
                </g>
              </g>
            </g>
            <g class="color_RGB{N0f8}(0.0,0.0,0.0)" fill-opacity="1" stroke="#FFFFFF" fill="#000000" id="img-c9b5e59a-51">
              <g class="marker" id="img-c9b5e59a-52">
                <g transform="translate(100.64,98.71)" id="img-c9b5e59a-53">
                  <circle cx="0" cy="0" r="0.9" class="primitive"/>
                </g>
              </g>
            </g>
            <g class="color_RGB{N0f8}(0.0,0.0,0.0)" fill-opacity="1" stroke="#FFFFFF" fill="#000000" id="img-c9b5e59a-54">
              <g class="marker" id="img-c9b5e59a-55">
                <g transform="translate(39.56,98.71)" id="img-c9b5e59a-56">
                  <circle cx="0" cy="0" r="0.9" class="primitive"/>
                </g>
              </g>
            </g>
            <g class="color_RGB{N0f8}(0.0,0.0,0.0)" fill-opacity="1" stroke="#FFFFFF" fill="#000000" id="img-c9b5e59a-57">
              <g class="marker" id="img-c9b5e59a-58">
                <g transform="translate(83.01,98.71)" id="img-c9b5e59a-59">
                  <circle cx="0" cy="0" r="0.9" class="primitive"/>
                </g>
              </g>
            </g>
            <g class="color_RGB{N0f8}(0.0,0.0,0.0)" fill-opacity="1" stroke="#FFFFFF" fill="#000000" id="img-c9b5e59a-60">
              <g class="marker" id="img-c9b5e59a-61">
                <g transform="translate(109.14,98.71)" id="img-c9b5e59a-62">
                  <circle cx="0" cy="0" r="0.9" class="primitive"/>
                </g>
              </g>
            </g>
            <g class="color_RGB{N0f8}(0.0,0.0,0.0)" fill-opacity="1" stroke="#FFFFFF" fill="#000000" id="img-c9b5e59a-63">
              <g class="marker" id="img-c9b5e59a-64">
                <g transform="translate(80.15,98.71)" id="img-c9b5e59a-65">
                  <circle cx="0" cy="0" r="0.9" class="primitive"/>
                </g>
              </g>
            </g>
            <g class="color_RGB{N0f8}(0.0,0.0,0.0)" fill-opacity="1" stroke="#FFFFFF" fill="#000000" id="img-c9b5e59a-66">
              <g class="marker" id="img-c9b5e59a-67">
                <g transform="translate(86.15,98.71)" id="img-c9b5e59a-68">
                  <circle cx="0" cy="0" r="0.9" class="primitive"/>
                </g>
              </g>
            </g>
            <g class="color_RGB{N0f8}(0.0,0.0,0.0)" fill-opacity="1" stroke="#FFFFFF" fill="#000000" id="img-c9b5e59a-69">
              <g class="marker" id="img-c9b5e59a-70">
                <g transform="translate(43.19,98.71)" id="img-c9b5e59a-71">
                  <circle cx="0" cy="0" r="0.9" class="primitive"/>
                </g>
              </g>
            </g>
            <g class="color_RGB{N0f8}(0.0,0.0,0.0)" fill-opacity="1" stroke="#FFFFFF" fill="#000000" id="img-c9b5e59a-72">
              <g class="marker" id="img-c9b5e59a-73">
                <g transform="translate(66.49,98.71)" id="img-c9b5e59a-74">
                  <circle cx="0" cy="0" r="0.9" class="primitive"/>
                </g>
              </g>
            </g>
            <g class="color_RGB{N0f8}(0.0,0.0,0.0)" fill-opacity="1" stroke="#FFFFFF" fill="#000000" id="img-c9b5e59a-75">
              <g class="marker" id="img-c9b5e59a-76">
                <g transform="translate(96.38,98.71)" id="img-c9b5e59a-77">
                  <circle cx="0" cy="0" r="0.9" class="primitive"/>
                </g>
              </g>
            </g>
            <g class="color_RGB{N0f8}(0.0,0.0,0.0)" fill-opacity="1" stroke="#FFFFFF" fill="#000000" id="img-c9b5e59a-78">
              <g class="marker" id="img-c9b5e59a-79">
                <g transform="translate(24.15,98.71)" id="img-c9b5e59a-80">
                  <circle cx="0" cy="0" r="0.9" class="primitive"/>
                </g>
              </g>
            </g>
            <g class="color_RGB{N0f8}(0.0,0.0,0.0)" fill-opacity="1" stroke="#FFFFFF" fill="#000000" id="img-c9b5e59a-81">
              <g class="marker" id="img-c9b5e59a-82">
                <g transform="translate(61.01,98.71)" id="img-c9b5e59a-83">
                  <circle cx="0" cy="0" r="0.9" class="primitive"/>
                </g>
              </g>
            </g>
            <g class="color_RGB{N0f8}(0.0,0.0,0.0)" fill-opacity="1" stroke="#FFFFFF" fill="#000000" id="img-c9b5e59a-84">
              <g class="marker" id="img-c9b5e59a-85">
                <g transform="translate(34.16,98.71)" id="img-c9b5e59a-86">
                  <circle cx="0" cy="0" r="0.9" class="primitive"/>
                </g>
              </g>
            </g>
            <g class="color_RGB{N0f8}(0.0,0.0,0.0)" fill-opacity="1" stroke="#FFFFFF" fill="#000000" id="img-c9b5e59a-87">
              <g class="marker" id="img-c9b5e59a-88">
                <g transform="translate(35.13,98.71)" id="img-c9b5e59a-89">
                  <circle cx="0" cy="0" r="0.9" class="primitive"/>
                </g>
              </g>
            </g>
            <g class="color_RGB{N0f8}(0.0,0.0,0.0)" fill-opacity="1" stroke="#FFFFFF" fill="#000000" id="img-c9b5e59a-90">
              <g class="marker" id="img-c9b5e59a-91">
                <g transform="translate(103.32,98.71)" id="img-c9b5e59a-92">
                  <circle cx="0" cy="0" r="0.9" class="primitive"/>
                </g>
              </g>
            </g>
            <g class="color_RGB{N0f8}(0.0,0.0,0.0)" fill-opacity="1" stroke="#FFFFFF" fill="#000000" id="img-c9b5e59a-93">
              <g class="marker" id="img-c9b5e59a-94">
                <g transform="translate(21.96,98.71)" id="img-c9b5e59a-95">
                  <circle cx="0" cy="0" r="0.9" class="primitive"/>
                </g>
              </g>
            </g>
            <g class="color_RGB{N0f8}(0.0,0.0,0.0)" fill-opacity="1" stroke="#FFFFFF" fill="#000000" id="img-c9b5e59a-96">
              <g class="marker" id="img-c9b5e59a-97">
                <g transform="translate(84.69,98.71)" id="img-c9b5e59a-98">
                  <circle cx="0" cy="0" r="0.9" class="primitive"/>
                </g>
              </g>
            </g>
            <g class="color_RGB{N0f8}(0.0,0.0,0.0)" fill-opacity="1" stroke="#FFFFFF" fill="#000000" id="img-c9b5e59a-99">
              <g class="marker" id="img-c9b5e59a-100">
                <g transform="translate(27.45,98.71)" id="img-c9b5e59a-101">
                  <circle cx="0" cy="0" r="0.9" class="primitive"/>
                </g>
              </g>
            </g>
            <g class="color_RGB{N0f8}(0.0,0.0,0.0)" fill-opacity="1" stroke="#FFFFFF" fill="#000000" id="img-c9b5e59a-102">
              <g class="marker" id="img-c9b5e59a-103">
                <g transform="translate(131.72,98.71)" id="img-c9b5e59a-104">
                  <circle cx="0" cy="0" r="0.9" class="primitive"/>
                </g>
              </g>
            </g>
            <g class="color_RGB{N0f8}(0.0,0.0,0.0)" fill-opacity="1" stroke="#FFFFFF" fill="#000000" id="img-c9b5e59a-105">
              <g class="marker" id="img-c9b5e59a-106">
                <g transform="translate(34.5,98.71)" id="img-c9b5e59a-107">
                  <circle cx="0" cy="0" r="0.9" class="primitive"/>
                </g>
              </g>
            </g>
            <g class="color_RGB{N0f8}(0.0,0.0,0.0)" fill-opacity="1" stroke="#FFFFFF" fill="#000000" id="img-c9b5e59a-108">
              <g class="marker" id="img-c9b5e59a-109">
                <g transform="translate(89.46,98.71)" id="img-c9b5e59a-110">
                  <circle cx="0" cy="0" r="0.9" class="primitive"/>
                </g>
              </g>
            </g>
            <g class="color_RGB{N0f8}(0.0,0.0,0.0)" fill-opacity="1" stroke="#FFFFFF" fill="#000000" id="img-c9b5e59a-111">
              <g class="marker" id="img-c9b5e59a-112">
                <g transform="translate(22.04,98.71)" id="img-c9b5e59a-113">
                  <circle cx="0" cy="0" r="0.9" class="primitive"/>
                </g>
              </g>
            </g>
            <g class="color_RGB{N0f8}(0.0,0.0,0.0)" fill-opacity="1" stroke="#FFFFFF" fill="#000000" id="img-c9b5e59a-114">
              <g class="marker" id="img-c9b5e59a-115">
                <g transform="translate(35.1,98.71)" id="img-c9b5e59a-116">
                  <circle cx="0" cy="0" r="0.9" class="primitive"/>
                </g>
              </g>
            </g>
            <g class="color_RGB{N0f8}(0.0,0.0,0.0)" fill-opacity="1" stroke="#FFFFFF" fill="#000000" id="img-c9b5e59a-117">
              <g class="marker" id="img-c9b5e59a-118">
                <g transform="translate(94.61,98.71)" id="img-c9b5e59a-119">
                  <circle cx="0" cy="0" r="0.9" class="primitive"/>
                </g>
              </g>
            </g>
            <g class="color_RGB{N0f8}(0.0,0.0,0.0)" fill-opacity="1" stroke="#FFFFFF" fill="#000000" id="img-c9b5e59a-120">
              <g class="marker" id="img-c9b5e59a-121">
                <g transform="translate(132.09,98.71)" id="img-c9b5e59a-122">
                  <circle cx="0" cy="0" r="0.9" class="primitive"/>
                </g>
              </g>
            </g>
            <g class="color_RGB{N0f8}(0.0,0.0,0.0)" fill-opacity="1" stroke="#FFFFFF" fill="#000000" id="img-c9b5e59a-123">
              <g class="marker" id="img-c9b5e59a-124">
                <g transform="translate(40.71,98.71)" id="img-c9b5e59a-125">
                  <circle cx="0" cy="0" r="0.9" class="primitive"/>
                </g>
              </g>
            </g>
            <g class="color_RGB{N0f8}(0.0,0.0,0.0)" fill-opacity="1" stroke="#FFFFFF" fill="#000000" id="img-c9b5e59a-126">
              <g class="marker" id="img-c9b5e59a-127">
                <g transform="translate(86.28,98.71)" id="img-c9b5e59a-128">
                  <circle cx="0" cy="0" r="0.9" class="primitive"/>
                </g>
              </g>
            </g>
            <g class="color_RGB{N0f8}(0.0,0.0,0.0)" fill-opacity="1" stroke="#FFFFFF" fill="#000000" id="img-c9b5e59a-129">
              <g class="marker" id="img-c9b5e59a-130">
                <g transform="translate(55.88,98.71)" id="img-c9b5e59a-131">
                  <circle cx="0" cy="0" r="0.9" class="primitive"/>
                </g>
              </g>
            </g>
            <g class="color_RGB{N0f8}(0.0,0.0,0.0)" fill-opacity="1" stroke="#FFFFFF" fill="#000000" id="img-c9b5e59a-132">
              <g class="marker" id="img-c9b5e59a-133">
                <g transform="translate(65.71,98.71)" id="img-c9b5e59a-134">
                  <circle cx="0" cy="0" r="0.9" class="primitive"/>
                </g>
              </g>
            </g>
            <g class="color_RGB{N0f8}(0.0,0.0,0.0)" fill-opacity="1" stroke="#FFFFFF" fill="#000000" id="img-c9b5e59a-135">
              <g class="marker" id="img-c9b5e59a-136">
                <g transform="translate(69.69,98.71)" id="img-c9b5e59a-137">
                  <circle cx="0" cy="0" r="0.9" class="primitive"/>
                </g>
              </g>
            </g>
            <g class="color_RGB{N0f8}(0.0,0.0,0.0)" fill-opacity="1" stroke="#FFFFFF" fill="#000000" id="img-c9b5e59a-138">
              <g class="marker" id="img-c9b5e59a-139">
                <g transform="translate(26.51,98.71)" id="img-c9b5e59a-140">
                  <circle cx="0" cy="0" r="0.9" class="primitive"/>
                </g>
              </g>
            </g>
            <g class="color_RGB{N0f8}(0.0,0.0,0.0)" fill-opacity="1" stroke="#FFFFFF" fill="#000000" id="img-c9b5e59a-141">
              <g class="marker" id="img-c9b5e59a-142">
                <g transform="translate(71.13,98.71)" id="img-c9b5e59a-143">
                  <circle cx="0" cy="0" r="0.9" class="primitive"/>
                </g>
              </g>
            </g>
            <g class="color_RGB{N0f8}(0.0,0.0,0.0)" fill-opacity="1" stroke="#FFFFFF" fill="#000000" id="img-c9b5e59a-144">
              <g class="marker" id="img-c9b5e59a-145">
                <g transform="translate(52.32,98.71)" id="img-c9b5e59a-146">
                  <circle cx="0" cy="0" r="0.9" class="primitive"/>
                </g>
              </g>
            </g>
            <g class="color_RGB{N0f8}(0.0,0.0,0.0)" fill-opacity="1" stroke="#FFFFFF" fill="#000000" id="img-c9b5e59a-147">
              <g class="marker" id="img-c9b5e59a-148">
                <g transform="translate(48.98,98.71)" id="img-c9b5e59a-149">
                  <circle cx="0" cy="0" r="0.9" class="primitive"/>
                </g>
              </g>
            </g>
            <g class="color_RGB{N0f8}(0.0,0.0,0.0)" fill-opacity="1" stroke="#FFFFFF" fill="#000000" id="img-c9b5e59a-150">
              <g class="marker" id="img-c9b5e59a-151">
                <g transform="translate(26.93,98.71)" id="img-c9b5e59a-152">
                  <circle cx="0" cy="0" r="0.9" class="primitive"/>
                </g>
              </g>
            </g>
          </g>
        </g>
        <g stroke-width="0.3" fill="#000000" fill-opacity="0.000" class="geometry" id="img-c9b5e59a-153">
          <g transform="translate(77.99,70.56)" id="img-c9b5e59a-154" stroke="#00BFFF" class="color_0.03" stroke-dasharray="none">
            <path fill="none" d="M-57.36,-2.02 L-56.79,-10.78 -56.21,-17.94 -55.64,-22.67 -55.07,-25.25 -54.49,-27.01 -53.92,-29.71 -53.35,-34.56 -52.77,-41.4 -52.2,-48.43 -51.63,-52.79 -51.05,-51.91 -50.48,-44.75 -49.9,-32.41 -49.33,-17.64 -48.76,-3.7 -48.18,6.75 -47.61,12.05 -47.04,11.41 -46.46,4.66 -45.89,-7.7 -45.32,-24.06 -44.74,-41.44 -44.17,-55.84 -43.59,-63.56 -43.02,-62.71 -42.45,-54.22 -41.87,-41.57 -41.3,-29.31 -40.73,-21.17 -40.15,-18.68 -39.58,-20.91 -39.01,-25.24 -38.43,-28.71 -37.86,-29.34 -37.28,-26.66 -36.71,-21.55 -36.14,-15.33 -35.56,-9.05 -34.99,-3.08 -34.42,2.6 -33.84,8.02 -33.27,12.87 -32.7,16.58 -32.12,18.53 -31.55,18.44 -30.98,16.47 -30.4,13.3 -29.83,9.87 -29.25,7.07 -28.68,5.33 -28.11,4.55 -27.53,4.27 -26.96,4.08 -26.39,3.9 -25.81,3.96 -25.24,4.39 -24.67,5.06 -24.09,5.59 -23.52,5.76 -22.94,5.78 -22.37,6.21 -21.8,7.59 -21.22,9.94 -20.65,12.68 -20.08,14.85 -19.5,15.59 -18.93,14.63 -18.36,12.37 -17.78,9.7 -17.21,7.5 -16.63,6.11 -16.06,5.03 -15.49,3.17 -14.91,-0.59 -14.34,-6.59 -13.77,-14.03 -13.19,-21.09 -12.62,-25.77 -12.05,-26.74 -11.47,-24.07 -10.9,-19.14 -10.33,-14.03 -9.75,-10.43 -9.18,-8.98 -8.6,-9.07 -8.03,-9.29 -7.46,-8.2 -6.88,-5.01 -6.31,0.16 -5.74,6.49 -5.16,12.87 -4.59,18.34 -4.02,22.43 -3.44,25.07 -2.87,26.47 -2.29,26.88 -1.72,26.42 -1.15,25.05 -0.57,22.66 0,19.24 0.57,15.03 1.15,10.56 1.72,6.42 2.29,2.97 2.87,0.08 3.44,-2.77 4.02,-6.27 4.59,-10.89 5.16,-16.78 5.74,-23.74 6.31,-31.21 6.88,-38.27 7.46,-43.76 8.03,-46.56 8.6,-46.17 9.18,-43.01 9.75,-38.23 10.33,-33.07 10.9,-28.11 11.47,-23.11 12.05,-17.46 12.62,-10.92 13.19,-4.1 13.77,1.74 14.34,5.31 14.91,5.95 15.49,3.95 16.06,0.46 16.63,-3.05 17.21,-5.23 17.78,-5.27 18.36,-3.14 18.93,0.49 19.5,4.44 20.08,7.48 20.65,8.77 21.22,8.15 21.8,6.16 22.37,3.7 22.94,1.58 23.52,0.3 24.09,0.05 24.67,0.93 25.24,3.01 25.81,6.23 26.39,10.21 26.96,14.21 27.53,17.34 28.11,18.86 28.68,18.44 29.25,16.34 29.83,13.35 30.4,10.6 30.98,9.17 31.55,9.65 32.12,11.99 32.7,15.5 33.27,19.3 33.84,22.6 34.42,25.04 34.99,26.59 35.56,27.45 36.14,27.87 36.71,28.05 37.28,28.12 37.86,28.15 38.43,28.15 39.01,28.15 39.58,28.15 40.15,28.15 40.73,28.15 41.3,28.15 41.87,28.15 42.45,28.15 43.02,28.15 43.59,28.15 44.17,28.15 44.74,28.15 45.32,28.15 45.89,28.15 46.46,28.15 47.04,28.14 47.61,28.11 48.18,28 48.76,27.71 49.33,27.02 49.9,25.57 50.48,22.88 51.05,18.51 51.63,12.37 52.2,5.01 52.77,-2.27 53.35,-7.66 53.92,-9.62 54.49,-7.55 55.07,-2.07 55.64,5.23 56.21,12.57 56.79,18.67 57.36,22.98 " class="primitive"/>
          </g>
          <g transform="translate(77.99,52.54)" id="img-c9b5e59a-155" stroke="#D4CA3A" class="color_0.1" stroke-dasharray="none">
            <path fill="none" d="M-57.36,-5.12 L-56.79,-9.04 -56.21,-12.86 -55.64,-16.54 -55.07,-20.03 -54.49,-23.31 -53.92,-26.35 -53.35,-29.14 -52.77,-31.66 -52.2,-33.92 -51.63,-35.92 -51.05,-37.67 -50.48,-39.19 -49.9,-40.5 -49.33,-41.63 -48.76,-42.59 -48.18,-43.4 -47.61,-44.08 -47.04,-44.63 -46.46,-45.06 -45.89,-45.36 -45.32,-45.52 -44.74,-45.54 -44.17,-45.39 -43.59,-45.05 -43.02,-44.51 -42.45,-43.75 -41.87,-42.76 -41.3,-41.53 -40.73,-40.04 -40.15,-38.32 -39.58,-36.36 -39.01,-34.18 -38.43,-31.81 -37.86,-29.27 -37.28,-26.6 -36.71,-23.84 -36.14,-21.03 -35.56,-18.2 -34.99,-15.38 -34.42,-12.64 -33.84,-9.99 -33.27,-7.47 -32.7,-5.11 -32.12,-2.93 -31.55,-0.94 -30.98,0.86 -30.4,2.46 -29.83,3.86 -29.25,5.06 -28.68,6.08 -28.11,6.93 -27.53,7.61 -26.96,8.15 -26.39,8.55 -25.81,8.82 -25.24,8.98 -24.67,9.02 -24.09,8.95 -23.52,8.77 -22.94,8.48 -22.37,8.09 -21.8,7.58 -21.22,6.95 -20.65,6.22 -20.08,5.38 -19.5,4.43 -18.93,3.39 -18.36,2.27 -17.78,1.1 -17.21,-0.11 -16.63,-1.33 -16.06,-2.52 -15.49,-3.66 -14.91,-4.71 -14.34,-5.63 -13.77,-6.4 -13.19,-6.99 -12.62,-7.37 -12.05,-7.51 -11.47,-7.42 -10.9,-7.1 -10.33,-6.54 -9.75,-5.76 -9.18,-4.79 -8.6,-3.65 -8.03,-2.39 -7.46,-1.05 -6.88,0.33 -6.31,1.67 -5.74,2.95 -5.16,4.08 -4.59,5.04 -4.02,5.76 -3.44,6.21 -2.87,6.35 -2.29,6.16 -1.72,5.61 -1.15,4.72 -0.57,3.47 0,1.89 0.57,0 1.15,-2.15 1.72,-4.53 2.29,-7.08 2.87,-9.73 3.44,-12.44 4.02,-15.13 4.59,-17.75 5.16,-20.2 5.74,-22.45 6.31,-24.44 6.88,-26.14 7.46,-27.51 8.03,-28.52 8.6,-29.16 9.18,-29.42 9.75,-29.32 10.33,-28.86 10.9,-28.07 11.47,-26.99 12.05,-25.65 12.62,-24.1 13.19,-22.36 13.77,-20.5 14.34,-18.54 14.91,-16.53 15.49,-14.5 16.06,-12.48 16.63,-10.49 17.21,-8.56 17.78,-6.7 18.36,-4.91 18.93,-3.2 19.5,-1.57 20.08,-0.01 20.65,1.49 21.22,2.92 21.8,4.3 22.37,5.65 22.94,6.96 23.52,8.26 24.09,9.54 24.67,10.82 25.24,12.1 25.81,13.4 26.39,14.7 26.96,16.01 27.53,17.35 28.11,18.69 28.68,20.05 29.25,21.43 29.83,22.81 30.4,24.2 30.98,25.59 31.55,26.97 32.12,28.34 32.7,29.69 33.27,31.02 33.84,32.31 34.42,33.56 34.99,34.75 35.56,35.88 36.14,36.95 36.71,37.93 37.28,38.83 37.86,39.63 38.43,40.34 39.01,40.93 39.58,41.42 40.15,41.78 40.73,42.02 41.3,42.14 41.87,42.12 42.45,41.98 43.02,41.7 43.59,41.3 44.17,40.76 44.74,40.1 45.32,39.33 45.89,38.45 46.46,37.48 47.04,36.43 47.61,35.33 48.18,34.19 48.76,33.04 49.33,31.92 49.9,30.83 50.48,29.82 51.05,28.91 51.63,28.13 52.2,27.49 52.77,27.03 53.35,26.74 53.92,26.65 54.49,26.75 55.07,27.05 55.64,27.52 56.21,28.16 56.79,28.96 57.36,29.88 " class="primitive"/>
          </g>
          <g transform="translate(77.99,32.64)" id="img-c9b5e59a-156" stroke="#FF6DAE" class="color_0.3" stroke-dasharray="none">
            <path fill="none" d="M-57.36,-0.73 L-56.79,-2.17 -56.21,-3.58 -55.64,-4.96 -55.07,-6.31 -54.49,-7.62 -53.92,-8.9 -53.35,-10.14 -52.77,-11.34 -52.2,-12.51 -51.63,-13.62 -51.05,-14.7 -50.48,-15.72 -49.9,-16.69 -49.33,-17.62 -48.76,-18.5 -48.18,-19.33 -47.61,-20.11 -47.04,-20.83 -46.46,-21.5 -45.89,-22.13 -45.32,-22.69 -44.74,-23.21 -44.17,-23.67 -43.59,-24.09 -43.02,-24.45 -42.45,-24.76 -41.87,-25.02 -41.3,-25.24 -40.73,-25.4 -40.15,-25.52 -39.58,-25.6 -39.01,-25.64 -38.43,-25.63 -37.86,-25.58 -37.28,-25.5 -36.71,-25.38 -36.14,-25.23 -35.56,-25.05 -34.99,-24.83 -34.42,-24.6 -33.84,-24.33 -33.27,-24.04 -32.7,-23.74 -32.12,-23.41 -31.55,-23.07 -30.98,-22.71 -30.4,-22.35 -29.83,-21.97 -29.25,-21.59 -28.68,-21.2 -28.11,-20.81 -27.53,-20.41 -26.96,-20.02 -26.39,-19.63 -25.81,-19.24 -25.24,-18.86 -24.67,-18.49 -24.09,-18.12 -23.52,-17.77 -22.94,-17.42 -22.37,-17.09 -21.8,-16.77 -21.22,-16.46 -20.65,-16.17 -20.08,-15.89 -19.5,-15.63 -18.93,-15.39 -18.36,-15.16 -17.78,-14.95 -17.21,-14.76 -16.63,-14.59 -16.06,-14.43 -15.49,-14.29 -14.91,-14.16 -14.34,-14.05 -13.77,-13.96 -13.19,-13.88 -12.62,-13.82 -12.05,-13.77 -11.47,-13.73 -10.9,-13.7 -10.33,-13.69 -9.75,-13.68 -9.18,-13.69 -8.6,-13.7 -8.03,-13.72 -7.46,-13.74 -6.88,-13.77 -6.31,-13.8 -5.74,-13.83 -5.16,-13.86 -4.59,-13.89 -4.02,-13.91 -3.44,-13.93 -2.87,-13.95 -2.29,-13.96 -1.72,-13.96 -1.15,-13.94 -0.57,-13.92 0,-13.88 0.57,-13.83 1.15,-13.77 1.72,-13.68 2.29,-13.58 2.87,-13.46 3.44,-13.31 4.02,-13.15 4.59,-12.96 5.16,-12.75 5.74,-12.51 6.31,-12.25 6.88,-11.96 7.46,-11.64 8.03,-11.3 8.6,-10.92 9.18,-10.52 9.75,-10.09 10.33,-9.63 10.9,-9.14 11.47,-8.62 12.05,-8.07 12.62,-7.49 13.19,-6.88 13.77,-6.25 14.34,-5.58 14.91,-4.89 15.49,-4.17 16.06,-3.42 16.63,-2.65 17.21,-1.86 17.78,-1.04 18.36,-0.19 18.93,0.67 19.5,1.56 20.08,2.46 20.65,3.39 21.22,4.33 21.8,5.28 22.37,6.25 22.94,7.23 23.52,8.22 24.09,9.23 24.67,10.23 25.24,11.25 25.81,12.27 26.39,13.3 26.96,14.32 27.53,15.35 28.11,16.38 28.68,17.4 29.25,18.42 29.83,19.44 30.4,20.45 30.98,21.45 31.55,22.44 32.12,23.42 32.7,24.4 33.27,25.36 33.84,26.3 34.42,27.24 34.99,28.15 35.56,29.06 36.14,29.94 36.71,30.81 37.28,31.67 37.86,32.5 38.43,33.32 39.01,34.12 39.58,34.91 40.15,35.67 40.73,36.41 41.3,37.14 41.87,37.85 42.45,38.54 43.02,39.21 43.59,39.87 44.17,40.51 44.74,41.13 45.32,41.73 45.89,42.31 46.46,42.89 47.04,43.44 47.61,43.99 48.18,44.51 48.76,45.03 49.33,45.53 49.9,46.01 50.48,46.49 51.05,46.96 51.63,47.41 52.2,47.85 52.77,48.29 53.35,48.71 53.92,49.13 54.49,49.54 55.07,49.94 55.64,50.34 56.21,50.72 56.79,51.1 57.36,51.48 " class="primitive"/>
          </g>
        </g>
      </g>
    </g>
  </g>
  <g class="guide ylabels" font-size="2.82" font-family="'PT Sans Caption','Helvetica Neue','Helvetica',sans-serif" fill="#6C606B" id="img-c9b5e59a-157">
    <g transform="translate(17.63,98.71)" id="img-c9b5e59a-158">
      <g class="primitive">
        <text text-anchor="end" dy="0.35em">0.0</text>
      </g>
    </g>
    <g transform="translate(17.63,52.86)" id="img-c9b5e59a-159">
      <g class="primitive">
        <text text-anchor="end" dy="0.35em">0.5</text>
      </g>
    </g>
    <g transform="translate(17.63,7)" id="img-c9b5e59a-160">
      <g class="primitive">
        <text text-anchor="end" dy="0.35em">1.0</text>
      </g>
    </g>
  </g>
  <g font-size="3.88" font-family="'PT Sans','Helvetica Neue','Helvetica',sans-serif" fill="#564A55" stroke="#000000" stroke-opacity="0.000" id="img-c9b5e59a-161">
    <g transform="translate(8.81,50.86)" id="img-c9b5e59a-162">
      <g class="primitive">
        <text text-anchor="middle" dy="0.35em" transform="rotate(-90,0, 2)">density</text>
      </g>
    </g>
  </g>
</g>
<defs>
  <clipPath id="img-c9b5e59a-16">
    <path d="M18.63,5 L137.35,5 137.35,100.72 18.63,100.72 " />
  </clipPath>
</defs>
</svg>
