<?xml version="1.0" encoding="UTF-8"?>
<svg xmlns="http://www.w3.org/2000/svg"
     xmlns:xlink="http://www.w3.org/1999/xlink"
     xmlns:gadfly="http://www.gadflyjl.org/ns"
     version="1.2"
     width="160mm" height="120mm" viewBox="0 0 160 120"
     stroke="none"
     fill="#000000"
     stroke-width="0.3"
     font-size="3.88"
>
<defs>
  <marker id="arrow" markerWidth="15" markerHeight="7" refX="5" refY="3.5" orient="auto" markerUnits="strokeWidth">
    <path d="M0,0 L15,3.5 L0,7 z" stroke="context-stroke" fill="context-stroke"/>
  </marker>
</defs>
<g stroke="#000000" stroke-opacity="0.000" fill="#FFFFFF" id="img-62b995eb-1">
  <g transform="translate(80,60)">
    <path d="M-80,-60 L80,-60 80,60 -80,60  z" class="primitive"/>
  </g>
</g>
<g class="plotroot xscalable yscalable" id="img-62b995eb-2">
  <g font-size="3.88" font-family="'PT Sans','Helvetica Neue','Helvetica',sans-serif" fill="#564A55" stroke="#000000" stroke-opacity="0.000" id="img-62b995eb-3">
    <g transform="translate(77.99,108.39)">
      <g class="primitive">
        <text text-anchor="middle" dy="0.6em">x</text>
      </g>
    </g>
  </g>
  <g class="guide xlabels" font-size="2.82" font-family="'PT Sans Caption','Helvetica Neue','Helvetica',sans-serif" fill="#6C606B" id="img-62b995eb-4">
    <g transform="translate(20.63,101.72)">
      <g class="primitive">
        <text text-anchor="middle" dy="0.6em">-1.0</text>
      </g>
    </g>
    <g transform="translate(49.31,101.72)">
      <g class="primitive">
        <text text-anchor="middle" dy="0.6em">-0.5</text>
      </g>
    </g>
    <g transform="translate(77.99,101.72)">
      <g class="primitive">
        <text text-anchor="middle" dy="0.6em">0.0</text>
      </g>
    </g>
    <g transform="translate(106.67,101.72)">
      <g class="primitive">
        <text text-anchor="middle" dy="0.6em">0.5</text>
      </g>
    </g>
    <g transform="translate(135.35,101.72)">
      <g class="primitive">
        <text text-anchor="middle" dy="0.6em">1.0</text>
      </g>
    </g>
  </g>
  <g class="guide colorkey" id="img-62b995eb-5">
    <g class="color_0.161" id="img-62b995eb-6">
      <g fill="#4C404B" font-size="2.82" font-family="'PT Sans','Helvetica Neue','Helvetica',sans-serif" id="img-62b995eb-7">
        <g transform="translate(141.17,54.67)" id="img-62b995eb-8">
          <g class="primitive">
            <text dy="0.35em">0.161</text>
          </g>
        </g>
      </g>
      <g fill-opacity="1" fill="#00BFFF" stroke="#FFFFFF" id="img-62b995eb-9">
        <g transform="translate(139.26,54.67)" id="img-62b995eb-10">
          <path d="M-0.91,-0.91 L0.91,-0.91 0.91,0.91 -0.91,0.91  z" class="primitive"/>
        </g>
      </g>
    </g>
    <g fill="#362A35" font-size="3.88" font-family="'PT Sans','Helvetica Neue','Helvetica',sans-serif" stroke="#000000" stroke-opacity="0.000" id="img-62b995eb-11">
      <g transform="translate(138.35,50.85)" id="img-62b995eb-12">
        <g class="primitive">
          <text dy="-0em">bandwidth</text>
        </g>
      </g>
    </g>
  </g>
  <g clip-path="url(#img-62b995eb-13)">
    <g id="img-62b995eb-14">
      <g pointer-events="visible" stroke-width="0.3" fill="#000000" fill-opacity="0.000" stroke="#000000" stroke-opacity="0.000" class="guide background" id="img-62b995eb-15">
        <g transform="translate(77.99,52.86)" id="img-62b995eb-16">
          <path d="M-59.36,-47.86 L59.36,-47.86 59.36,47.86 -59.36,47.86  z" class="primitive"/>
        </g>
      </g>
      <g class="guide ygridlines xfixed" stroke-dasharray="0.5,0.5" stroke-width="0.2" stroke="#D0D0E0" id="img-62b995eb-17">
        <g transform="translate(77.99,98.71)" id="img-62b995eb-18">
          <path fill="none" d="M-59.36,0 L59.36,0 " class="primitive"/>
        </g>
        <g transform="translate(77.99,52.86)" id="img-62b995eb-19">
          <path fill="none" d="M-59.36,0 L59.36,0 " class="primitive"/>
        </g>
        <g transform="translate(77.99,7)" id="img-62b995eb-20">
          <path fill="none" d="M-59.36,0 L59.36,0 " class="primitive"/>
        </g>
      </g>
      <g class="guide xgridlines yfixed" stroke-dasharray="0.5,0.5" stroke-width="0.2" stroke="#D0D0E0" id="img-62b995eb-21">
        <g transform="translate(20.63,52.86)" id="img-62b995eb-22">
          <path fill="none" d="M0,-47.86 L0,47.86 " class="primitive"/>
        </g>
        <g transform="translate(49.31,52.86)" id="img-62b995eb-23">
          <path fill="none" d="M0,-47.86 L0,47.86 " class="primitive"/>
        </g>
        <g transform="translate(77.99,52.86)" id="img-62b995eb-24">
          <path fill="none" d="M0,-47.86 L0,47.86 " class="primitive"/>
        </g>
        <g transform="translate(106.67,52.86)" id="img-62b995eb-25">
          <path fill="none" d="M0,-47.86 L0,47.86 " class="primitive"/>
        </g>
        <g transform="translate(135.35,52.86)" id="img-62b995eb-26">
          <path fill="none" d="M0,-47.86 L0,47.86 " class="primitive"/>
        </g>
      </g>
      <g class="plotpanel" id="img-62b995eb-27">
        <metadata>
          <boundingbox value="18.63166666666666mm 5.0mm 118.7225mm 95.715mm"/>
          <unitbox value="-1.0348667436640588 1.0218066837485689 2.0697334873281177 -1.043613367497138"/>
        </metadata>
        <g class="geometry" id="img-62b995eb-28">
          <g stroke-width="0.3" id="img-62b995eb-29">
            <g class="color_RGB{N0f8}(0.0,0.0,0.0)" fill-opacity="1" stroke="#FFFFFF" fill="#000000" id="img-62b995eb-30">
              <g class="marker" id="img-62b995eb-31">
                <g transform="translate(87.18,98.71)" id="img-62b995eb-32">
                  <circle cx="0" cy="0" r="0.9" class="primitive"/>
                </g>
              </g>
            </g>
            <g class="color_RGB{N0f8}(0.0,0.0,0.0)" fill-opacity="1" stroke="#FFFFFF" fill="#000000" id="img-62b995eb-33">
              <g class="marker" id="img-62b995eb-34">
                <g transform="translate(90.19,98.71)" id="img-62b995eb-35">
                  <circle cx="0" cy="0" r="0.9" class="primitive"/>
                </g>
              </g>
            </g>
            <g class="color_RGB{N0f8}(0.0,0.0,0.0)" fill-opacity="1" stroke="#FFFFFF" fill="#000000" id="img-62b995eb-36">
              <g class="marker" id="img-62b995eb-37">
                <g transform="translate(26.69,98.71)" id="img-62b995eb-38">
                  <circle cx="0" cy="0" r="0.9" class="primitive"/>
                </g>
              </g>
            </g>
            <g class="color_RGB{N0f8}(0.0,0.0,0.0)" fill-opacity="1" stroke="#FFFFFF" fill="#000000" id="img-62b995eb-39">
              <g class="marker" id="img-62b995eb-40">
                <g transform="translate(39.32,98.71)" id="img-62b995eb-41">
                  <circle cx="0" cy="0" r="0.9" class="primitive"/>
                </g>
              </g>
            </g>
            <g class="color_RGB{N0f8}(0.0,0.0,0.0)" fill-opacity="1" stroke="#FFFFFF" fill="#000000" id="img-62b995eb-42">
              <g class="marker" id="img-62b995eb-43">
                <g transform="translate(34.03,98.71)" id="img-62b995eb-44">
                  <circle cx="0" cy="0" r="0.9" class="primitive"/>
                </g>
              </g>
            </g>
            <g class="color_RGB{N0f8}(0.0,0.0,0.0)" fill-opacity="1" stroke="#FFFFFF" fill="#000000" id="img-62b995eb-45">
              <g class="marker" id="img-62b995eb-46">
                <g transform="translate(64.89,98.71)" id="img-62b995eb-47">
                  <circle cx="0" cy="0" r="0.9" class="primitive"/>
                </g>
              </g>
            </g>
            <g class="color_RGB{N0f8}(0.0,0.0,0.0)" fill-opacity="1" stroke="#FFFFFF" fill="#000000" id="img-62b995eb-48">
              <g class="marker" id="img-62b995eb-49">
                <g transform="translate(100.64,98.71)" id="img-62b995eb-50">
                  <circle cx="0" cy="0" r="0.9" class="primitive"/>
                </g>
              </g>
            </g>
            <g class="color_RGB{N0f8}(0.0,0.0,0.0)" fill-opacity="1" stroke="#FFFFFF" fill="#000000" id="img-62b995eb-51">
              <g class="marker" id="img-62b995eb-52">
                <g transform="translate(39.56,98.71)" id="img-62b995eb-53">
                  <circle cx="0" cy="0" r="0.9" class="primitive"/>
                </g>
              </g>
            </g>
            <g class="color_RGB{N0f8}(0.0,0.0,0.0)" fill-opacity="1" stroke="#FFFFFF" fill="#000000" id="img-62b995eb-54">
              <g class="marker" id="img-62b995eb-55">
                <g transform="translate(83.01,98.71)" id="img-62b995eb-56">
                  <circle cx="0" cy="0" r="0.9" class="primitive"/>
                </g>
              </g>
            </g>
            <g class="color_RGB{N0f8}(0.0,0.0,0.0)" fill-opacity="1" stroke="#FFFFFF" fill="#000000" id="img-62b995eb-57">
              <g class="marker" id="img-62b995eb-58">
                <g transform="translate(109.14,98.71)" id="img-62b995eb-59">
                  <circle cx="0" cy="0" r="0.9" class="primitive"/>
                </g>
              </g>
            </g>
            <g class="color_RGB{N0f8}(0.0,0.0,0.0)" fill-opacity="1" stroke="#FFFFFF" fill="#000000" id="img-62b995eb-60">
              <g class="marker" id="img-62b995eb-61">
                <g transform="translate(80.15,98.71)" id="img-62b995eb-62">
                  <circle cx="0" cy="0" r="0.9" class="primitive"/>
                </g>
              </g>
            </g>
            <g class="color_RGB{N0f8}(0.0,0.0,0.0)" fill-opacity="1" stroke="#FFFFFF" fill="#000000" id="img-62b995eb-63">
              <g class="marker" id="img-62b995eb-64">
                <g transform="translate(86.15,98.71)" id="img-62b995eb-65">
                  <circle cx="0" cy="0" r="0.9" class="primitive"/>
                </g>
              </g>
            </g>
            <g class="color_RGB{N0f8}(0.0,0.0,0.0)" fill-opacity="1" stroke="#FFFFFF" fill="#000000" id="img-62b995eb-66">
              <g class="marker" id="img-62b995eb-67">
                <g transform="translate(43.19,98.71)" id="img-62b995eb-68">
                  <circle cx="0" cy="0" r="0.9" class="primitive"/>
                </g>
              </g>
            </g>
            <g class="color_RGB{N0f8}(0.0,0.0,0.0)" fill-opacity="1" stroke="#FFFFFF" fill="#000000" id="img-62b995eb-69">
              <g class="marker" id="img-62b995eb-70">
                <g transform="translate(66.49,98.71)" id="img-62b995eb-71">
                  <circle cx="0" cy="0" r="0.9" class="primitive"/>
                </g>
              </g>
            </g>
            <g class="color_RGB{N0f8}(0.0,0.0,0.0)" fill-opacity="1" stroke="#FFFFFF" fill="#000000" id="img-62b995eb-72">
              <g class="marker" id="img-62b995eb-73">
                <g transform="translate(96.38,98.71)" id="img-62b995eb-74">
                  <circle cx="0" cy="0" r="0.9" class="primitive"/>
                </g>
              </g>
            </g>
            <g class="color_RGB{N0f8}(0.0,0.0,0.0)" fill-opacity="1" stroke="#FFFFFF" fill="#000000" id="img-62b995eb-75">
              <g class="marker" id="img-62b995eb-76">
                <g transform="translate(24.15,98.71)" id="img-62b995eb-77">
                  <circle cx="0" cy="0" r="0.9" class="primitive"/>
                </g>
              </g>
            </g>
            <g class="color_RGB{N0f8}(0.0,0.0,0.0)" fill-opacity="1" stroke="#FFFFFF" fill="#000000" id="img-62b995eb-78">
              <g class="marker" id="img-62b995eb-79">
                <g transform="translate(61.01,98.71)" id="img-62b995eb-80">
                  <circle cx="0" cy="0" r="0.9" class="primitive"/>
                </g>
              </g>
            </g>
            <g class="color_RGB{N0f8}(0.0,0.0,0.0)" fill-opacity="1" stroke="#FFFFFF" fill="#000000" id="img-62b995eb-81">
              <g class="marker" id="img-62b995eb-82">
                <g transform="translate(34.16,98.71)" id="img-62b995eb-83">
                  <circle cx="0" cy="0" r="0.9" class="primitive"/>
                </g>
              </g>
            </g>
            <g class="color_RGB{N0f8}(0.0,0.0,0.0)" fill-opacity="1" stroke="#FFFFFF" fill="#000000" id="img-62b995eb-84">
              <g class="marker" id="img-62b995eb-85">
                <g transform="translate(35.13,98.71)" id="img-62b995eb-86">
                  <circle cx="0" cy="0" r="0.9" class="primitive"/>
                </g>
              </g>
            </g>
            <g class="color_RGB{N0f8}(0.0,0.0,0.0)" fill-opacity="1" stroke="#FFFFFF" fill="#000000" id="img-62b995eb-87">
              <g class="marker" id="img-62b995eb-88">
                <g transform="translate(103.32,98.71)" id="img-62b995eb-89">
                  <circle cx="0" cy="0" r="0.9" class="primitive"/>
                </g>
              </g>
            </g>
            <g class="color_RGB{N0f8}(0.0,0.0,0.0)" fill-opacity="1" stroke="#FFFFFF" fill="#000000" id="img-62b995eb-90">
              <g class="marker" id="img-62b995eb-91">
                <g transform="translate(21.96,98.71)" id="img-62b995eb-92">
                  <circle cx="0" cy="0" r="0.9" class="primitive"/>
                </g>
              </g>
            </g>
            <g class="color_RGB{N0f8}(0.0,0.0,0.0)" fill-opacity="1" stroke="#FFFFFF" fill="#000000" id="img-62b995eb-93">
              <g class="marker" id="img-62b995eb-94">
                <g transform="translate(84.69,98.71)" id="img-62b995eb-95">
                  <circle cx="0" cy="0" r="0.9" class="primitive"/>
                </g>
              </g>
            </g>
            <g class="color_RGB{N0f8}(0.0,0.0,0.0)" fill-opacity="1" stroke="#FFFFFF" fill="#000000" id="img-62b995eb-96">
              <g class="marker" id="img-62b995eb-97">
                <g transform="translate(27.45,98.71)" id="img-62b995eb-98">
                  <circle cx="0" cy="0" r="0.9" class="primitive"/>
                </g>
              </g>
            </g>
            <g class="color_RGB{N0f8}(0.0,0.0,0.0)" fill-opacity="1" stroke="#FFFFFF" fill="#000000" id="img-62b995eb-99">
              <g class="marker" id="img-62b995eb-100">
                <g transform="translate(131.72,98.71)" id="img-62b995eb-101">
                  <circle cx="0" cy="0" r="0.9" class="primitive"/>
                </g>
              </g>
            </g>
            <g class="color_RGB{N0f8}(0.0,0.0,0.0)" fill-opacity="1" stroke="#FFFFFF" fill="#000000" id="img-62b995eb-102">
              <g class="marker" id="img-62b995eb-103">
                <g transform="translate(34.5,98.71)" id="img-62b995eb-104">
                  <circle cx="0" cy="0" r="0.9" class="primitive"/>
                </g>
              </g>
            </g>
            <g class="color_RGB{N0f8}(0.0,0.0,0.0)" fill-opacity="1" stroke="#FFFFFF" fill="#000000" id="img-62b995eb-105">
              <g class="marker" id="img-62b995eb-106">
                <g transform="translate(89.46,98.71)" id="img-62b995eb-107">
                  <circle cx="0" cy="0" r="0.9" class="primitive"/>
                </g>
              </g>
            </g>
            <g class="color_RGB{N0f8}(0.0,0.0,0.0)" fill-opacity="1" stroke="#FFFFFF" fill="#000000" id="img-62b995eb-108">
              <g class="marker" id="img-62b995eb-109">
                <g transform="translate(22.04,98.71)" id="img-62b995eb-110">
                  <circle cx="0" cy="0" r="0.9" class="primitive"/>
                </g>
              </g>
            </g>
            <g class="color_RGB{N0f8}(0.0,0.0,0.0)" fill-opacity="1" stroke="#FFFFFF" fill="#000000" id="img-62b995eb-111">
              <g class="marker" id="img-62b995eb-112">
                <g transform="translate(35.1,98.71)" id="img-62b995eb-113">
                  <circle cx="0" cy="0" r="0.9" class="primitive"/>
                </g>
              </g>
            </g>
            <g class="color_RGB{N0f8}(0.0,0.0,0.0)" fill-opacity="1" stroke="#FFFFFF" fill="#000000" id="img-62b995eb-114">
              <g class="marker" id="img-62b995eb-115">
                <g transform="translate(94.61,98.71)" id="img-62b995eb-116">
                  <circle cx="0" cy="0" r="0.9" class="primitive"/>
                </g>
              </g>
            </g>
            <g class="color_RGB{N0f8}(0.0,0.0,0.0)" fill-opacity="1" stroke="#FFFFFF" fill="#000000" id="img-62b995eb-117">
              <g class="marker" id="img-62b995eb-118">
                <g transform="translate(132.09,98.71)" id="img-62b995eb-119">
                  <circle cx="0" cy="0" r="0.9" class="primitive"/>
                </g>
              </g>
            </g>
            <g class="color_RGB{N0f8}(0.0,0.0,0.0)" fill-opacity="1" stroke="#FFFFFF" fill="#000000" id="img-62b995eb-120">
              <g class="marker" id="img-62b995eb-121">
                <g transform="translate(40.71,98.71)" id="img-62b995eb-122">
                  <circle cx="0" cy="0" r="0.9" class="primitive"/>
                </g>
              </g>
            </g>
            <g class="color_RGB{N0f8}(0.0,0.0,0.0)" fill-opacity="1" stroke="#FFFFFF" fill="#000000" id="img-62b995eb-123">
              <g class="marker" id="img-62b995eb-124">
                <g transform="translate(86.28,98.71)" id="img-62b995eb-125">
                  <circle cx="0" cy="0" r="0.9" class="primitive"/>
                </g>
              </g>
            </g>
            <g class="color_RGB{N0f8}(0.0,0.0,0.0)" fill-opacity="1" stroke="#FFFFFF" fill="#000000" id="img-62b995eb-126">
              <g class="marker" id="img-62b995eb-127">
                <g transform="translate(55.88,98.71)" id="img-62b995eb-128">
                  <circle cx="0" cy="0" r="0.9" class="primitive"/>
                </g>
              </g>
            </g>
            <g class="color_RGB{N0f8}(0.0,0.0,0.0)" fill-opacity="1" stroke="#FFFFFF" fill="#000000" id="img-62b995eb-129">
              <g class="marker" id="img-62b995eb-130">
                <g transform="translate(65.71,98.71)" id="img-62b995eb-131">
                  <circle cx="0" cy="0" r="0.9" class="primitive"/>
                </g>
              </g>
            </g>
            <g class="color_RGB{N0f8}(0.0,0.0,0.0)" fill-opacity="1" stroke="#FFFFFF" fill="#000000" id="img-62b995eb-132">
              <g class="marker" id="img-62b995eb-133">
                <g transform="translate(69.69,98.71)" id="img-62b995eb-134">
                  <circle cx="0" cy="0" r="0.9" class="primitive"/>
                </g>
              </g>
            </g>
            <g class="color_RGB{N0f8}(0.0,0.0,0.0)" fill-opacity="1" stroke="#FFFFFF" fill="#000000" id="img-62b995eb-135">
              <g class="marker" id="img-62b995eb-136">
                <g transform="translate(26.51,98.71)" id="img-62b995eb-137">
                  <circle cx="0" cy="0" r="0.9" class="primitive"/>
                </g>
              </g>
            </g>
            <g class="color_RGB{N0f8}(0.0,0.0,0.0)" fill-opacity="1" stroke="#FFFFFF" fill="#000000" id="img-62b995eb-138">
              <g class="marker" id="img-62b995eb-139">
                <g transform="translate(71.13,98.71)" id="img-62b995eb-140">
                  <circle cx="0" cy="0" r="0.9" class="primitive"/>
                </g>
              </g>
            </g>
            <g class="color_RGB{N0f8}(0.0,0.0,0.0)" fill-opacity="1" stroke="#FFFFFF" fill="#000000" id="img-62b995eb-141">
              <g class="marker" id="img-62b995eb-142">
                <g transform="translate(52.32,98.71)" id="img-62b995eb-143">
                  <circle cx="0" cy="0" r="0.9" class="primitive"/>
                </g>
              </g>
            </g>
            <g class="color_RGB{N0f8}(0.0,0.0,0.0)" fill-opacity="1" stroke="#FFFFFF" fill="#000000" id="img-62b995eb-144">
              <g class="marker" id="img-62b995eb-145">
                <g transform="translate(48.98,98.71)" id="img-62b995eb-146">
                  <circle cx="0" cy="0" r="0.9" class="primitive"/>
                </g>
              </g>
            </g>
            <g class="color_RGB{N0f8}(0.0,0.0,0.0)" fill-opacity="1" stroke="#FFFFFF" fill="#000000" id="img-62b995eb-147">
              <g class="marker" id="img-62b995eb-148">
                <g transform="translate(26.93,98.71)" id="img-62b995eb-149">
                  <circle cx="0" cy="0" r="0.9" class="primitive"/>
                </g>
              </g>
            </g>
          </g>
        </g>
        <g stroke-width="0.3" fill="#000000" fill-opacity="0.000" class="geometry" id="img-62b995eb-150">
          <g class="color_0.161" stroke-dasharray="none" stroke="#00BFFF" id="img-62b995eb-151">
            <g transform="translate(77.99,46.4)" id="img-62b995eb-152">
              <path fill="none" d="M-57.36,-5 L-56.79,-7.66 -56.21,-10.28 -55.64,-12.85 -55.07,-15.35 -54.49,-17.79 -53.92,-20.13 -53.35,-22.38 -52.77,-24.53 -52.2,-26.56 -51.63,-28.46 -51.05,-30.23 -50.48,-31.85 -49.9,-33.33 -49.33,-34.66 -48.76,-35.83 -48.18,-36.85 -47.61,-37.69 -47.04,-38.34 -46.46,-38.86 -45.89,-39.2 -45.32,-39.38 -44.74,-39.4 -44.17,-39.26 -43.59,-38.97 -43.02,-38.53 -42.45,-37.94 -41.87,-37.22 -41.3,-36.37 -40.73,-35.39 -40.15,-34.31 -39.58,-33.12 -39.01,-31.85 -38.43,-30.49 -37.86,-29.06 -37.28,-27.57 -36.71,-26.04 -36.14,-24.47 -35.56,-22.88 -34.99,-21.28 -34.42,-19.67 -33.84,-18.08 -33.27,-16.51 -32.7,-14.98 -32.12,-13.48 -31.55,-12.04 -30.98,-10.65 -30.4,-9.33 -29.83,-8.09 -29.25,-6.92 -28.68,-5.84 -28.11,-4.84 -27.53,-3.94 -26.96,-3.12 -26.39,-2.4 -25.81,-1.78 -25.24,-1.24 -24.67,-0.78 -24.09,-0.41 -23.52,-0.13 -22.94,0.07 -22.37,0.21 -21.8,0.27 -21.22,0.28 -20.65,0.23 -20.08,0.13 -19.5,-0.01 -18.93,-0.18 -18.36,-0.37 -17.78,-0.59 -17.21,-0.82 -16.63,-1.06 -16.06,-1.3 -15.49,-1.54 -14.91,-1.78 -14.34,-2 -13.77,-2.22 -13.19,-2.42 -12.62,-2.61 -12.05,-2.79 -11.47,-2.95 -10.9,-3.11 -10.33,-3.26 -9.75,-3.42 -9.18,-3.57 -8.6,-3.73 -8.03,-3.91 -7.46,-4.1 -6.88,-4.31 -6.31,-4.56 -5.74,-4.83 -5.16,-5.15 -4.59,-5.5 -4.02,-5.9 -3.44,-6.35 -2.87,-6.84 -2.29,-7.38 -1.72,-7.97 -1.15,-8.6 -0.57,-9.26 0,-9.97 0.57,-10.7 1.15,-11.45 1.72,-12.22 2.29,-12.99 2.87,-13.76 3.44,-14.51 4.02,-15.23 4.59,-15.93 5.16,-16.57 5.74,-17.17 6.31,-17.69 6.88,-18.15 7.46,-18.52 8.03,-18.8 8.6,-18.99 9.18,-19.07 9.75,-19.06 10.33,-18.93 10.9,-18.7 11.47,-18.35 12.05,-17.9 12.62,-17.34 13.19,-16.68 13.77,-15.91 14.34,-15.05 14.91,-14.1 15.49,-13.07 16.06,-11.95 16.63,-10.76 17.21,-9.52 17.78,-8.2 18.36,-6.82 18.93,-5.41 19.5,-3.95 20.08,-2.46 20.65,-0.95 21.22,0.59 21.8,2.14 22.37,3.7 22.94,5.27 23.52,6.84 24.09,8.41 24.67,9.97 25.24,11.52 25.81,13.06 26.39,14.58 26.96,16.09 27.53,17.57 28.11,19.02 28.68,20.45 29.25,21.85 29.83,23.22 30.4,24.55 30.98,25.84 31.55,27.09 32.12,28.3 32.7,29.46 33.27,30.56 33.84,31.62 34.42,32.62 34.99,33.56 35.56,34.44 36.14,35.26 36.71,36.01 37.28,36.7 37.86,37.32 38.43,37.88 39.01,38.36 39.58,38.78 40.15,39.13 40.73,39.42 41.3,39.64 41.87,39.8 42.45,39.91 43.02,39.96 43.59,39.96 44.17,39.91 44.74,39.82 45.32,39.7 45.89,39.55 46.46,39.38 47.04,39.19 47.61,38.99 48.18,38.78 48.76,38.58 49.33,38.38 49.9,38.2 50.48,38.04 51.05,37.91 51.63,37.8 52.2,37.73 52.77,37.7 53.35,37.71 53.92,37.76 54.49,37.85 55.07,37.99 55.64,38.17 56.21,38.4 56.79,38.67 57.36,38.98 " class="primitive"/>
            </g>
          </g>
        </g>
      </g>
    </g>
  </g>
  <g class="guide ylabels" font-size="2.82" font-family="'PT Sans Caption','Helvetica Neue','Helvetica',sans-serif" fill="#6C606B" id="img-62b995eb-153">
    <g transform="translate(17.63,98.71)" id="img-62b995eb-154">
      <g class="primitive">
        <text text-anchor="end" dy="0.35em">0.0</text>
      </g>
    </g>
    <g transform="translate(17.63,52.86)" id="img-62b995eb-155">
      <g class="primitive">
        <text text-anchor="end" dy="0.35em">0.5</text>
      </g>
    </g>
    <g transform="translate(17.63,7)" id="img-62b995eb-156">
      <g class="primitive">
        <text text-anchor="end" dy="0.35em">1.0</text>
      </g>
    </g>
  </g>
  <g font-size="3.88" font-family="'PT Sans','Helvetica Neue','Helvetica',sans-serif" fill="#564A55" stroke="#000000" stroke-opacity="0.000" id="img-62b995eb-157">
    <g transform="translate(8.81,50.86)" id="img-62b995eb-158">
      <g class="primitive">
        <text text-anchor="middle" dy="0.35em" transform="rotate(-90,0, 2)">density</text>
      </g>
    </g>
  </g>
</g>
<defs>
  <clipPath id="img-62b995eb-13">
    <path d="M18.63,5 L137.35,5 137.35,100.72 18.63,100.72 " />
  </clipPath>
</defs>
</svg>
